<svg xmlns="http://www.w3.org/2000/svg" viewBox="0 0 480 480">
  <defs>
    <linearGradient id="ringHappy" x1="0" x2="1">
      <stop offset="0%" stop-color="#61E294"/>
      <stop offset="100%" stop-color="#5FE1E6"/>
    </linearGradient>
  </defs>
  <rect width="480" height="480" fill="#0B0D10"/>
  <circle cx="240" cy="240" r="196" fill="#121722"/>
  <circle cx="240" cy="240" r="188" fill="none" stroke="#263545" stroke-width="12"/>
  <path d="M90 235a150 150 0 1 1 300 0" fill="none" stroke="url(#ringHappy)" stroke-width="16" stroke-linecap="round"/>
  <rect x="118" y="92" width="244" height="212" rx="88" fill="#1E2630"/>
  <rect x="140" y="112" width="200" height="172" rx="70" fill="#0F1319"/>
  <path d="M176 194c10-18 34-18 44 0" fill="none" stroke="#5FE1E6" stroke-width="12" stroke-linecap="round"/>
  <path d="M260 194c10-18 34-18 44 0" fill="none" stroke="#5FE1E6" stroke-width="12" stroke-linecap="round"/>
  <path d="M198 236c18 24 66 24 84 0" fill="none" stroke="#D7DEE5" stroke-width="8" stroke-linecap="round"/>
  <rect x="172" y="298" width="136" height="84" rx="34" fill="#28333D"/>
  <rect x="193" y="323" width="94" height="36" rx="18" fill="#61E294"/>
</svg>
